<!DOCTYPE svg PUBLIC "-//W3C//DTD SVG 1.1//EN" "http://www.w3.org/Graphics/SVG/1.1/DTD/svg11.dtd">
<!-- Uploaded to: SVG Repo, www.svgrepo.com, Transformed by: SVG Repo Mixer Tools -->
<svg width="800px" height="800px" viewBox="0 0 72 72" id="emoji" xmlns="http://www.w3.org/2000/svg" fill="#000000">
<g id="SVGRepo_bgCarrier" stroke-width="0"/>
<g id="SVGRepo_tracerCarrier" stroke-linecap="round" stroke-linejoin="round"/>
<g id="SVGRepo_iconCarrier"> <g id="color"> <circle cx="19" cy="36.7" r="11.5" fill="#0433ff"/> <circle cx="36.2" cy="19.6" r="11.5" fill="#0433ff"/> <circle cx="53.4" cy="36.7" r="11.5" fill="#0433ff"/> <path fill="#0433ff" d="M38.7,38.8c1.2,7.9,7,20.5,8.9,21.3H36.2l0,0H24.9c2-0.9,8.4-15.1,9-22.8l0.3-0.9l4.8,1.5L38.7,38.8z"/> </g> <g id="line"> <path fill="none" stroke="#000000" stroke-linecap="round" stroke-linejoin="round" stroke-width="2" d="M38.7,38.8 c1.2,7.9,7,20.5,8.9,21.3H36.2l0,0H24.9c2-0.9,8.4-15.1,9-22.8"/> <circle cx="36.2" cy="19.6" r="11.5" fill="none" stroke="#000000" stroke-linecap="round" stroke-linejoin="round" stroke-width="2"/> <circle cx="53.4" cy="36.7" r="11.5" fill="none" stroke="#000000" stroke-linecap="round" stroke-linejoin="round" stroke-width="2"/> <circle cx="19" cy="36.7" r="11.5" fill="none" stroke="#000000" stroke-linecap="round" stroke-linejoin="round" stroke-width="2"/> </g> </g>
</svg>